<svg xmlns="http://www.w3.org/2000/svg" width="32" height="32" viewBox="0 0 24 24">
  <defs>
    <linearGradient id="g" x1="0%" y1="0%" x2="100%" y2="100%">
      <stop offset="0%" stop-color="#8b5cf6"/>
      <stop offset="50%" stop-color="#6366f1"/>
      <stop offset="100%" stop-color="#a855f7"/>
    </linearGradient>
  </defs>
  <path d="M12 2C6.49 2 2 6.49 2 12s4.49 10 10 10c1.38 0 2.5-1.12 2.5-2.5 0-.61-.23-1.2-.64-1.67-.08-.1-.13-.21-.13-.33 0-.28.22-.5.5-.5H16c3.31 0 6-2.69 6-6 0-4.96-4.49-9-10-9zM5.5 12c-.83 0-1.5-.67-1.5-1.5S4.67 9 5.5 9 7 9.67 7 10.5 6.33 12 5.5 12zm3-4C7.67 8 7 7.33 7 6.5S7.67 5 8.5 5s1.5.67 1.5 1.5S9.33 8 8.5 8zm7 0c-.83 0-1.5-.67-1.5-1.5S14.67 5 15.5 5s1.5.67 1.5 1.5S16.33 8 15.5 8zm3 4c-.83 0-1.5-.67-1.5-1.5S17.67 9 18.5 9s1.5.67 1.5 1.5-.67 1.5-1.5 1.5z" fill="url(#g)"/>
</svg>
